<?xml version="1.0" standalone="no"?><!DOCTYPE svg PUBLIC "-//W3C//DTD SVG 1.1//EN" "http://www.w3.org/Graphics/SVG/1.1/DTD/svg11.dtd"><svg t="1596027442327" class="icon" viewBox="0 0 1024 1024" version="1.1" xmlns="http://www.w3.org/2000/svg" p-id="8106" xmlns:xlink="http://www.w3.org/1999/xlink" width="200" height="200"><defs><style type="text/css"></style></defs><path d="M524.6 282.9m-203.8 0a203.8 203.8 0 1 0 407.6 0 203.8 203.8 0 1 0-407.6 0Z" fill="#A5E8D0" p-id="8107"></path><path d="M440.6 967.9c-19.2 0-37.2-7.5-50.8-21.1L111.3 668.4c-13.7-13.7-21.1-31.8-21.1-51.2 0.1-19.3 7.7-37.4 21.5-51l398-390.8c13.5-13.3 31.4-20.6 50.4-20.6H814c37.9 0 69.4 29.6 71.7 67.5l16.2 264.3c1.2 20-6.1 39.8-19.9 54.2l-389.6 405c-13.5 14-31.6 21.9-51.1 22-0.3 0.1-0.5 0.1-0.7 0.1zM171.4 617.6l269.1 269.1 383-398.1-15.6-255.3h-245L171.4 617.6z" fill="#2A2A2A" p-id="8108"></path></svg>