<?xml version="1.0" standalone="no"?><!DOCTYPE svg PUBLIC "-//W3C//DTD SVG 1.1//EN" "http://www.w3.org/Graphics/SVG/1.1/DTD/svg11.dtd"><svg t="1596283258215" class="icon" viewBox="0 0 1024 1024" version="1.1" xmlns="http://www.w3.org/2000/svg" p-id="1879" xmlns:xlink="http://www.w3.org/1999/xlink" width="200" height="200"><defs><style type="text/css"></style></defs><path d="M512 977.454545C255.348364 977.454545 46.545455 768.651636 46.545455 512S255.348364 46.545455 512 46.545455s465.454545 208.802909 465.454545 465.454545-208.802909 465.454545-465.454545 465.454545z m0-861.090909c-218.158545 0-395.636364 177.477818-395.636364 395.636364 0 218.158545 177.477818 395.636364 395.636364 395.636364 218.158545 0 395.636364-177.477818 395.636364-395.636364 0-218.158545-177.477818-395.636364-395.636364-395.636364z m250.181818 395.636364a34.909091 34.909091 0 0 0-34.909091-34.909091h-430.545454a34.909091 34.909091 0 0 0 0 69.818182h430.545454a34.909091 34.909091 0 0 0 34.909091-34.909091z m-215.272727 215.272727v-430.545454a34.909091 34.909091 0 0 0-69.818182 0v430.545454a34.909091 34.909091 0 0 0 69.818182 0z" p-id="1880"></path></svg>