<?xml version="1.0" standalone="no"?><!DOCTYPE svg PUBLIC "-//W3C//DTD SVG 1.1//EN" "http://www.w3.org/Graphics/SVG/1.1/DTD/svg11.dtd"><svg t="1596283138111" class="icon" viewBox="0 0 1024 1024" version="1.1" xmlns="http://www.w3.org/2000/svg" p-id="1469" xmlns:xlink="http://www.w3.org/1999/xlink" width="200" height="200"><defs><style type="text/css"></style></defs><path d="M512 23.272727c269.917091 0 488.727273 218.810182 488.727273 488.727273a486.632727 486.632727 0 0 1-84.945455 275.409455 46.545455 46.545455 0 0 1-76.846545-52.526546A393.541818 393.541818 0 0 0 907.636364 512c0-218.507636-177.128727-395.636364-395.636364-395.636364S116.363636 293.492364 116.363636 512s177.128727 395.636364 395.636364 395.636364a395.170909 395.170909 0 0 0 125.44-20.293819 46.545455 46.545455 0 0 1 29.486545 88.296728A488.261818 488.261818 0 0 1 512 1000.727273C242.082909 1000.727273 23.272727 781.917091 23.272727 512S242.082909 23.272727 512 23.272727z m0 232.727273a46.545455 46.545455 0 0 1 46.545455 46.545455v162.90909h162.90909a46.545455 46.545455 0 1 1 0 93.09091h-162.90909v162.90909a46.545455 46.545455 0 1 1-93.09091 0v-162.90909h-162.90909a46.545455 46.545455 0 1 1 0-93.09091h162.90909v-162.90909a46.545455 46.545455 0 0 1 46.545455-46.545455z" p-id="1470"></path></svg>