<?xml version="1.0" standalone="no"?><!DOCTYPE svg PUBLIC "-//W3C//DTD SVG 1.1//EN" "http://www.w3.org/Graphics/SVG/1.1/DTD/svg11.dtd"><svg t="1596283304079" class="icon" viewBox="0 0 1024 1024" version="1.1" xmlns="http://www.w3.org/2000/svg" p-id="2024" xmlns:xlink="http://www.w3.org/1999/xlink" width="200" height="200"><defs><style type="text/css"></style></defs><path d="M512 43.706182c-256.651636 0-465.454545 208.802909-465.454545 465.454545s208.802909 465.454545 465.454545 465.454546c256.698182 0 465.454545-208.802909 465.454545-465.454546s-208.756364-465.454545-465.454545-465.454545z m215.272727 500.363636H546.909091v180.363637a34.909091 34.909091 0 0 1-69.818182 0v-180.363637H296.727273a34.909091 34.909091 0 0 1 0-69.818182h180.363636V293.888a34.909091 34.909091 0 0 1 69.818182 0v180.363636h180.363636a34.909091 34.909091 0 0 1 0 69.818182z" p-id="2025"></path></svg>